<svg fill="none" height="24" viewBox="0 0 24 24" width="24" xmlns="http://www.w3.org/2000/svg" xmlns:xlink="http://www.w3.org/1999/xlink"><linearGradient id="a" gradientUnits="userSpaceOnUse" x1="7.32664" x2="6.57112" y1="20.4475" y2="18.6617"><stop offset="0" stop-color="#efa25f"/><stop offset="1" stop-color="#fcd2a8"/></linearGradient><linearGradient id="b" gradientUnits="userSpaceOnUse" x1="7.35401" x2="5.98438" y1="19.5369" y2="17.4437"><stop offset="0" stop-color="#fcd2a8" stop-opacity="0"/><stop offset=".0478245" stop-color="#facb9e" stop-opacity=".048743"/><stop offset=".235" stop-color="#f4b57c" stop-opacity=".2395"/><stop offset=".3892" stop-color="#f0a767" stop-opacity=".3967"/><stop offset=".4906" stop-color="#efa25f" stop-opacity=".5"/><stop offset=".7958" stop-color="#ea954b" stop-opacity=".2004"/><stop offset="1" stop-color="#e89043" stop-opacity="0"/></linearGradient><linearGradient id="c"><stop offset="0" stop-color="#3c2200"/><stop offset="1" stop-color="#512d00"/></linearGradient><linearGradient id="d" gradientUnits="userSpaceOnUse" x1="12.1272" x2="8.64668" xlink:href="#c" y1="14.1208" y2="11.8627"/><linearGradient id="e" gradientUnits="userSpaceOnUse" x1="10.526" x2="8.58783" y1="13.3187" y2="11.3289"><stop offset="0" stop-color="#f8be00"/><stop offset="1" stop-color="#fcce38"/></linearGradient><linearGradient id="f" gradientUnits="userSpaceOnUse" x1="10.9976" x2="12.9874" y1="13.7819" y2="15.7201"><stop offset="0" stop-color="#fba23b"/><stop offset="1" stop-color="#fcce38"/></linearGradient><linearGradient id="g"><stop offset="0" stop-color="#fba23b"/><stop offset="1" stop-color="#ff8000"/></linearGradient><linearGradient id="h" gradientUnits="userSpaceOnUse" x1="12.3566" x2="10.6614" xlink:href="#g" y1="14.8282" y2="13.9711"/><linearGradient id="i"><stop offset="0" stop-color="#cfdcde"/><stop offset=".2323" stop-color="#fff"/><stop offset="1" stop-color="#a9bcbe"/></linearGradient><linearGradient id="j" gradientUnits="userSpaceOnUse" x1="15.6735" x2="19.4982" xlink:href="#i" y1="4.50225" y2="8.32687"/><linearGradient id="k"><stop offset="0" stop-color="#f68"/><stop offset="1" stop-color="#fb9c9c"/></linearGradient><linearGradient id="l" gradientUnits="userSpaceOnUse" x1="19.622" x2="19.9062" xlink:href="#k" y1="5.24985" y2="1.89037"/><linearGradient id="m" gradientUnits="userSpaceOnUse" x1="17.0746" x2="19.3358" y1="5.90299" y2="8.16417"><stop offset="0" stop-color="#bbcacc" stop-opacity="0"/><stop offset=".4864" stop-color="#dee7e8"/><stop offset="1" stop-color="#8ea5a8" stop-opacity="0"/></linearGradient><linearGradient id="n" gradientUnits="userSpaceOnUse" x1="14.6076" x2="18.7442" xlink:href="#i" y1="5.25648" y2="9.39313"/><linearGradient id="o" gradientUnits="userSpaceOnUse" x1="15.8482" x2="19.9848" xlink:href="#i" y1="4.01545" y2="8.1521"/><linearGradient id="p" gradientUnits="userSpaceOnUse" x1="16.3623" x2="20.4989" xlink:href="#i" y1="3.5014" y2="7.63805"/><linearGradient id="q"><stop offset="0" stop-color="#cfdcde"/><stop offset="1" stop-color="#a9bcbe"/></linearGradient><linearGradient id="r" gradientUnits="userSpaceOnUse" x1="17.8876" x2="19.8688" xlink:href="#q" y1="4.20324" y2="9.35443"/><linearGradient id="s" gradientUnits="userSpaceOnUse" x1="17.2672" x2="19.2485" xlink:href="#q" y1="4.44214" y2="9.59334"/><linearGradient id="t" gradientUnits="userSpaceOnUse" x1="16.0267" x2="18.0079" xlink:href="#q" y1="5.68254" y2="10.8337"/><linearGradient id="u"><stop offset="0" stop-color="#99afb3"/><stop offset=".7677" stop-color="#dee7e8"/><stop offset="1" stop-color="#bbcacc"/></linearGradient><linearGradient id="v" gradientUnits="userSpaceOnUse" x1="18.1101" x2="14.5345" xlink:href="#u" y1="9.38585" y2="5.8103"/><linearGradient id="w" gradientUnits="userSpaceOnUse" x1="19.3507" x2="15.7752" xlink:href="#u" y1="8.14496" y2="4.5694"/><linearGradient id="x" gradientUnits="userSpaceOnUse" x1="19.1329" x2="17.1689" y1="5.27592" y2="6.46466"><stop offset="0" stop-color="#99afb3"/><stop offset="1" stop-color="#bbcacc" stop-opacity="0"/></linearGradient><linearGradient id="y"><stop offset="0" stop-color="#7a4400"/><stop offset="1" stop-color="#512d00"/></linearGradient><linearGradient id="z" gradientUnits="userSpaceOnUse" x1="2.1391" x2="3.00339" xlink:href="#y" y1="21.4566" y2="22.1995"/><linearGradient id="A" gradientUnits="userSpaceOnUse" x1="6.57108" x2="7.29466" xlink:href="#g" y1="19.5344" y2="19.4655"/><linearGradient id="B" gradientUnits="userSpaceOnUse" x1="8.14578" x2="12.3852" xlink:href="#c" y1="17.7467" y2="11.8366"/><linearGradient id="C" gradientUnits="userSpaceOnUse" x1="7.68994" x2="12.2523" y1="9.21878" y2="15.5753"><stop offset="0" stop-color="#975500"/><stop offset="1" stop-color="#512d00"/></linearGradient><linearGradient id="D" gradientUnits="userSpaceOnUse" x1="9.67285" x2="12.0843" xlink:href="#g" y1="12.4927" y2="15.5857"/><linearGradient id="E" gradientUnits="userSpaceOnUse" x1="8.46336" x2="9.39623" y1="11.2282" y2="12.1611"><stop offset="0" stop-color="#ff8000"/><stop offset="1" stop-color="#ff9d00" stop-opacity="0"/></linearGradient><linearGradient id="F" gradientUnits="userSpaceOnUse" x1="18.8946" x2="13.2783" y1="16.0642" y2="14.8582"><stop offset="0" stop-color="#c86f34"/><stop offset="1" stop-color="#c86f34" stop-opacity="0"/></linearGradient><linearGradient id="G" gradientUnits="userSpaceOnUse" x1="19.3587" x2="20.3234" y1="2.22366" y2="6.22057"><stop offset="0" stop-color="#ef708c"/><stop offset="1" stop-color="#ff5776"/></linearGradient><linearGradient id="H" gradientUnits="userSpaceOnUse" x1="19.9943" x2="20.1405" xlink:href="#k" y1="5.1837" y2="2.58991"/><linearGradient id="I" gradientUnits="userSpaceOnUse" x1="2.31869" x2="2.98736" xlink:href="#c" y1="21.7193" y2="22.0494"/><linearGradient id="J" gradientUnits="userSpaceOnUse" x1="2.21421" x2="3.04278" xlink:href="#y" y1="21.5445" y2="22.0516"/><path d="m7.7543 19.503c-.20571.4343-.56571.7771-1.01714.9486l-4.65714 1.8228c-.21714.0572-.41143-.1428-.36-.36l1.82286-4.6571c.17714-.4457.51428-.8114.94857-1.0171l6.12575-2.8686z" fill="url(#a)"/><path d="m7.7543 19.503c-.20571.4343-.56571.7771-1.01714.9486l-4.65714 1.8228c-.21714.0572-.41143-.1428-.36-.36l1.82286-4.6571c.17714-.4457.51428-.8114.94857-1.0171l6.12575-2.8686z" fill="url(#b)"/><g fill="#e89043" opacity=".5"><path d="m4.94864 20.6057.06286-.04c-.14286-.2285-.48571-.3714-.91429-.5542-.4-.1715-.87428-.3715-1.35428-.7029l-.02857.0686c.48.3314.95428.5314 1.34857.7028.42286.1772.75428.3143.88571.5257z" opacity=".5"/><path d="m5.49144 20.0346c-.34286-.2228-.61714-.2628-.88-.2971-.42857-.0629-.86857-.12-1.64-1.0114l-.02857.0743c.77143.88 1.22286.9428 1.65714 1.0057.26857.04.52.0743.85143.2857.33714.2171.46857.4857.45143.6857l.07428-.0286c.00572-.2171-.14285-.4914-.48571-.7143z" opacity=".5"/><path d="m6.71436 18.7316c.05143.0914.05143.1714.01714.2343-.05143.0857-.24571.2171-.93714.1828-1.09143-.0571-2.02286-.4685-2.65715-.8228l-.02857.0686c.64.36 1.57715.7714 2.68.8285.56.0286.89715-.0457 1.00572-.2171.05143-.0857.05143-.1886-.01143-.3029-.17714-.3314-.81143-.76-1.65143-1.1143-.49143-.2057-1-.3714-1.51429-.4857l-.02857.0686c1.52572.3371 2.86286 1.0629 3.12572 1.56z" opacity=".5"/><path d="m4.22298 18.2117c-.08572-.04-.18286-.0857-.28-.1314-.18286-.0915-.38286-.1886-.61143-.2858l-.02857.0686c.22286.0914.42286.1943.60571.28.09715.0457.18857.0914.28.1372.23429.1085.34857.0628.4.0228.05714-.0457.08-.1143.06857-.1943-.01714-.1143-.12-.2685-.34857-.3485l-.02285.0685c.19999.0686.28571.1943.30285.2915.01143.0571-.00571.0971-.04.1257-.06286.0457-.17714.0343-.32571-.0343z" opacity=".5"/><path d="m2.49708 19.937-.02857.0686c.58285.48 1.16571 1.04 1.42857 1.5543l.06285-.0229c-.26857-.5371-.86857-1.1086-1.46285-1.6z" opacity=".5"/><path d="m6.54296 19.8058c-.33714-.1257-.65714-.24-.96571-.2628l-.00572.0743c.29715.0171.61143.1314.94286.2571.28.1029.57143.2057.85715.2571.01714-.0171.03428-.04.05714-.0628-.29715-.0457-.59429-.1543-.88572-.2629z" opacity=".5"/><path d="m2.32008 20.3945-.02858.0686c.25143.1086.43429.2286.43429.2286l.04-.0629c-.01143-.0057-.19429-.1257-.44571-.2343z" opacity=".5"/><path d="m3.10286 19.9717c-.15429-.1257-.30858-.2571-.46858-.3828l-.02857.0685c.15429.12.30286.2458.45143.3658.34857.2914.67429.5657 1.08572.7885.30857.1715.57714.28.80571.3372l.12-.0457c-.24572-.0515-.54286-.16-.89143-.3543-.4-.2172-.72571-.4857-1.07428-.7772z" opacity=".5"/></g><path d="m16.6913 8.81721-9.78284 9.78289c-.04571.0457-.10286.08-.17143.0914l-1.08.1886c-.32.0571-.59428-.2229-.53714-.5372l.19428-1.0857c.01143-.0628.04-.1257.09143-.1714l9.7771-9.77716c.1258-.12571.3258-.12571.4515 0l1.0571 1.05714c.1257.12572.1257.32572 0 .45143z" fill="url(#d)"/><path d="m15.4116 7.08024-10.08005 10.07996s-.08.0115-.10286.0172l-1.54857.2743c-.08.0114-.14857-.04-.16572-.1086l.18286-.4743c.08-.2.2-.3886.35429-.5371l10.30285-10.30289z" fill="url(#e)"/><path d="m16.9201 8.58887-10.07996 10.08003s-.01143.08-.01714.1028l-.27429 1.5486c-.01142.08.04.1486.10858.1657l.47428-.1828c.2-.08.38857-.2.53714-.3543l10.30289-10.30289z" fill="url(#f)"/><path d="m17.0516 8.72567-10.11431 10.11433-.25715 1.4342c-.01143.0743.02857.1429.09715.1715l-.12.0457c-.06858-.0172-.12-.0857-.10858-.1657l.27429-1.5486c.00571-.0229.01714-.1029.01714-.1029l.16-.16 9.91996-9.91996z" fill="url(#h)"/><path d="m14.2515 5.92585 3.8228 3.82286 2.7372-2.73715c.0571-.05714.0571-.14857 0-.20571l-3.6115-3.62286c-.0571-.05714-.1485-.05714-.2057 0z" fill="url(#j)"/><path d="m17.3541 3.34296-.1771-.14285.9486-.94858c.7143-.71428 1.8685-.71428 2.5828 0l1.0343 1.03429c.7143.71429.7143 1.86857 0 2.58286l-.9257.93143z" fill="url(#l)"/><path d="m15.6516 7.32569 2.2629 2.26286 2.84-2.84571-2.2572-2.26286z" fill="url(#m)"/><path d="m18.8458 8.98314-3.8228-3.82286c-.3429-.07429-.5886.17143-.5143.51428l3.8228 3.82286c.3372.07429.5886-.17714.5143-.51428z" fill="url(#n)"/><path d="m20.0858 7.73704-3.8229-3.82286c-.3428-.07428-.5885.17143-.5142.51429l3.8228 3.82286c.3429.08.5886-.17143.5143-.51429z" fill="url(#o)"/><path d="m20.6 7.22288-3.8229-3.82286c-.3429-.07428-.5886.17143-.5143.51429l3.8229 3.82286c.3428.08.5886-.17143.5143-.51429z" fill="url(#p)"/><path d="m19.7144 6.99981c-.4172-.41715-2.9943-2.99429-3.4115-3.41143-.0514.09143-.0628.2-.04.32571l3.8229 3.82286c.2971.06857.5257-.11429.5257-.38857 0 .21714-.4514.10285-.8971-.34857z" fill="url(#r)"/><path d="m19.2 7.51446c-.4172-.41715-2.9943-2.99429-3.4115-3.41143-.0514.09143-.0628.2-.04.32571l3.8229 3.82286c.2971.06857.5257-.11428.5257-.38857 0 .21714-.4514.10286-.8971-.34857z" fill="url(#s)"/><path d="m17.9544 8.7542c-.4172-.41714-2.9943-2.99428-3.4115-3.41143-.0514.09143-.0628.2-.04.32572l3.8229 3.82285c.2971.06857.5257-.11428.5257-.38857.0057.21714-.4457.10286-.8971-.34857z" fill="url(#t)"/><path d="m14.5086 5.66895-.1143.11428 3.8228 3.82286.1143-.10857z" fill="url(#v)"/><path d="m15.7486 4.42871-.1143.11429 3.8228 3.82285.1143-.11428z" fill="url(#w)"/><path d="m20.0856 7.73708-3.8229-3.82286c-.0857-.01714-.1657-.01714-.24 0l3.9314 3.93143c.04.04.0858.06858.1372.08572.0114-.05143.0114-.12-.0057-.19429z" fill="url(#x)"/><path d="m3.60573 21.68-1.52571.5942c-.21714.0572-.41143-.1428-.36-.36l.43428-1.1085c.42286.3714.94286.6571 1.45143.8743z" fill="url(#z)"/><path d="m6.82867 18.6746.15428-.1429-.31428 1.7429c-.01143.0743.02857.1429.09714.1714l-.12.0457c-.06857-.0171-.12-.0857-.10857-.1657l.27428-1.5485c.00572-.0229.01715-.1029.01715-.1029z" fill="url(#A)"/><path d="m5.23438 18.7315c.07999.1429.32571.1657.42857.1486l1.17714-.2057 10.08001-10.08004-.0914-.09143-9.9829 9.97717-.04.0057-1.12571.2z" fill="url(#B)"/><path d="m5.2343 18.7315.27429-1.5371.00571-.04 9.9829-9.98289-.0915-.09143-10.07425 10.08002-.20572 1.1771" fill="url(#C)"/><path d="m15.2743 6.94873-10.11433 10.11427-1.43428.2572c-.07429.0114-.14286-.0286-.17143-.0972l-.04572.12c.01715.0686.08572.12.16572.1086l1.54857-.2743c.02286-.0057.10286-.0171.10286-.0171l.16-.16 9.92571-9.92004z" fill="url(#D)"/><path d="m15.4116 7.08024-10.08005 10.07996s-.08.0115-.10286.0172l-1.54857.2743c-.08.0114-.14857-.04-.16572-.1086l.18286-.4743c.08-.2.2-.3886.35429-.5371l10.30285-10.30289z" fill="url(#E)"/><path d="m16.9201 8.58887-10.07996 10.08003s-.01143.08-.01714.1028l-.27429 1.5486c-.01142.08.04.1486.10858.1657l.47428-.1828c.2-.08.38857-.2.53714-.3543l10.30289-10.30289z" fill="url(#F)"/><path d="m20.8171 6.80001.9372-.93715c.4686-.46857.6286-1.13143.48-1.73714l-.4057.40571c-.5715.57143-1.4057.66286-1.8686.2l-2.1543-2.15428-.6228.62286.1771.14285z" fill="url(#G)"/><path d="m19.9544 4.73715c.4629.46285 1.2972.37143 1.8686-.2l.3143-.31429-1.1657-1.17143c-.8-.8-2.0458-.88-2.9372-.23428z" fill="url(#H)"/><g fill="#ef4a4a"><path d="m21.1658 4.45117-.0114.00572h-.0057v.00571c-.0114.01714-.0057.02857 0 .03429v.00571c0 .00571 0 .00571.0057.00571l.0057.00572h.0229l.0171-.01714v-.01715l-.0057-.00571c-.0057-.01714-.0114-.02286-.0286-.02286z"/><path d="m21.3316 4.6626-.0171.01143s0 0-.0057 0-.0057.00571-.0057.00571l-.0057.01714v.00572c.0057.00571.0114.01143.0171.01143h.0171l.0058-.00572.0057-.00571c.0057-.00572.0114-.01714.0114-.02286 0-.00571-.0057-.01143-.0114-.01714z"/><path d="m22.0458 4.70248s.0057 0 0 0l.0057-.00572v-.01714l-.0057-.00572c-.0057-.01142-.0228-.01714-.04 0h-.0057l-.0057.02286.0057.00572c.0057.00571.0171.01142.0229.01142.0114 0 .0228-.00571.0228-.01142z"/><path d="m21.886 4.57709h.0057s.0057 0 .0057-.00571c.0057-.00572.0057-.00572.0057-.01143 0 0 .0057 0 .0057-.00572.0057-.00571.0057-.01714 0-.02857l-.0057-.00571h-.0114v.01142-.01142h-.0115c-.0114-.00572-.0228 0-.0285.00571 0 0 0 .00571-.0058.00571v.00572c0 .01143.0058.01714.0058.01714l.0057.00572c0 .00571.0057.00571.0057.00571.0057.01143.0114.01714.0229.01143z"/><path d="m21.5144 5.37706c.0172.01715.0343.01143.04.00572h.0057s.0057 0 .0057-.00572l.0058-.00571h.0057l.0057-.01143v-.00571-.00572c0-.00571 0-.00571 0-.01142v-.01143-.00572c0-.00571 0-.01714-.0114-.02285-.0115-.01143-.0286-.01143-.0343-.00572h-.0057v.00572c-.0058 0-.0058.00571-.0115.00571l-.0114.01143-.0057.00571v.00572l-.0057.00571s0 .00572-.0057.00572l-.0058.01142.0058.00572v.00571c0 .00572.0057.01143.0057.01143 0 .00572 0 .01143.0057.01714l.0057.00572z"/><path d="m22.0231 4.17692.0171.00571h.0058c.0057 0 .0114-.00571.0114-.00571.0114-.01143.0057-.02286 0-.03429 0 0-.0057 0-.0057-.00571 0 0-.0057-.01143-.0172-.01143-.0114 0-.0171 0-.0228.00571l-.0057.00572v.01143l-.0058.01714v.00571c.0058.00572.0115.01143.0172.01143.0057-.00571.0057-.00571.0057-.00571z"/><path d="m20.6116 6.3252h-.0229-.0114v.00571c-.0057 0-.0114.00571-.0229.01143l-.0057.00571v.00572c-.0057.00571-.0057.01714 0 .02857v.00571l.0057.00572c.0057.00571.0172.00571.0229.01142h.0057l.0057.00572.0172-.01143v-.00571l.0057.00571s.0057 0 .0057-.00571c-.0057.00571-.0057.01142-.0057.01714v.01714l.0057.00571c.0114.01715.0286.01715.04.00572l.0057-.00572v-.00571l.0057-.01143v-.00571c0-.00572-.0057-.01143-.0114-.01714-.0057-.00572-.0114-.01143-.0114-.01143h-.0058l-.0114.00571s0-.00571.0057-.00571c.0057-.00572.0057-.01143.0057-.01715.0058-.00571.0058-.01142.0058-.01714v-.00571c-.0172-.00572-.0286-.01143-.0343-.01714z"/><path d="m21.8516 5.32541v-.01143c.0057-.00572.0115-.01714.0057-.02857 0 0 0 0 0-.00572 0-.00571 0-.01143-.0057-.01143v-.00571l-.0171-.00571h-.0057c-.0057 0-.0057.00571-.0115.00571h-.0057l-.0057.00571c-.0057 0-.0114.00572-.0171.00572 0 0 0 0-.0057.00571v.00572.01143l-.0058.00571v.02286l.0286.02285.0172-.00571h.0057c.0057 0 .0114-.00571.0114-.01143.0057 0 .0114-.00571.0114-.00571z"/><path d="m21.7546 4.95402c.0057 0 .0114-.00571.0172-.01143.0114-.01143.0114-.02857.0114-.04v-.00571c-.0114-.01715-.0286-.04-.0686-.01715-.0057 0-.0114.00572-.0171.00572l-.0058.00571v.00572c0 .00571-.0057.00571-.0057.01143v.01142.01143.00572l.0057.00571c.0115.01143.0229.01714.0343.01714.0058 0 .0172 0 .0286-.00571z"/><path d="m21.1886 5.88574c-.0171 0-.0285.01143-.04.01715-.0057.01142-.0114.02285-.0114.03428v.01143l.0171.00571h.0058c.0057.00572.0171.01143.0342.01143l.0058-.00571c.0057-.00572.0057-.00572.0057-.00572l.0057-.00571c.0057-.00572.0057-.00571.0114-.01143v-.00571l-.0057-.01715h-.0057c-.0057-.00571-.0114-.01143-.0114-.01714v-.00571z"/><path d="m21.0915 5.97705c-.0058 0-.0115.00572-.0115.00572l-.0057.00571v.01714c-.0057.01143 0 .01715 0 .02286v.00571.00572c.0057.01143.0172.01714.0172.01714h.0057l.0171-.00571v-.00572c.0057-.00571.0057-.01143.0057-.01714l.0115-.01143v-.00571c0-.01143-.0058-.01715-.0058-.02286 0 0 0 0 0-.00571v-.00572z"/><path d="m21.3886 5.70835c-.0229 0-.0229.01714-.0229.02286v.01143l.0172.01142h.0057c.0114 0 .0285-.00571.0343-.02285 0-.00572 0-.01143-.0115-.02286l-.0057-.00571z"/><path d="m18.5658 3.85727-.0057.01143v.00571.00572c0 .02285.0114.02285.0171.02857h.0057s.0057 0 .0114.00571h.0058l.0171-.01143v-.02285l-.0114-.01715h-.0057c-.0115-.01143-.0229-.01143-.0343-.00571z"/><path d="m18.8229 3.92578-.0058.02286v.00571.00572.00571l.0058.01143h.0057c.0057.00571.0171.00571.0228 0l.0114-.01143v-.00571-.00572c0-.01143 0-.01714-.0057-.02285-.0057-.00572-.0114-.00572-.0228-.00572z"/><path d="m19.417 3.52579v-.00572-.00571l-.0114-.01143h-.0057c-.0114 0-.0286 0-.0286.02286v.00571l.0115.02286h.0057c.0114 0 .0171 0 .0228-.00572.0058-.00571.0057-.01714.0057-.02285z"/><path d="m19.2116 3.52555.0057-.00571v-.00572c0-.00571 0-.01143 0-.01143v-.00571c0-.01143-.0057-.01714-.0171-.02286h-.0058l-.0114.00572.0057.01142-.0057-.00571-.0057.00571c-.0114.00572-.0171.01143-.0171.02286v.00572.00571c.0057.00571.0114.01143.0171.01143h.0057.0057c.0057-.00572.0172-.00572.0229-.01143z"/><path d="m20.0914 4.05702-.0171.00571-.0057.01143c-.0058.00572-.0058.01715-.0115.03429v.01143.00571l.0115.00572c0 .00571.0057.01142.0114.01714.0114.00571.0286.01143.04 0 .0171-.00572.0286-.01714.0286-.02286l.0057-.00571v-.01715c0-.00571 0-.00571 0-.01142v-.00572-.00571c0-.00572-.0057-.01143-.0115-.01143-.0057-.00572-.0114-.01143-.0171-.01143h-.0057-.0286c0-.00571 0-.00571 0 0z"/><path d="m21.0799 4.7028.0229-.01143v-.00572l.0057-.00571-.0115-.02857h-.0228l-.0172.01143v.00571.00571c-.0057.01715.0115.02858.0229.02858z"/><path d="m21.5486 4.7084.0114.01715h.0057c.0172.00571.0286-.00572.0343-.01143l.0057-.00572-.0057-.02285-.0057-.00572h-.0057c-.0286-.00571-.0343.01143-.04.02857z"/><path d="m21.16 4.50284v-.01143c-.0057-.01143-.0229-.01143-.0286-.01143-.0114 0-.0171.01143-.0171.02286v.00571l.0171.01715h.0057c.0057 0 .0172.00571.0229-.00572 0-.00571 0-.01143 0-.01714z"/><path d="m19.3999 4.38267c.0229.00571.0343-.01143.0343-.02286v-.00571s0-.00572.0057-.00572v-.00571s0 0 0-.00571v-.01143s0-.00572-.0057-.00572c0-.00571-.0057-.00571-.0057-.01143v-.00571l-.0057-.01143-.0057-.00571c-.0057-.00572-.0115-.01143-.0229-.01143-.0171-.00571-.0286.01143-.0343.01714l-.0057.00572v.00571c0 .00571-.0057.00571-.0057.01143l-.0057.01714v.00572l.0057.00571v.01143.00571.01143h.0057s0 .00572.0057.00572c.0057.00571.0057.00571.0114.00571.0058.00571.0058.00571.0172.01143h.0057z"/><path d="m20.2572 4.42871-.0172.00572c-.0057 0-.0057 0-.0114.00571l-.0057.01143c0 .00571.0057.01714.0114.02285.0115.00572.0286.01143.0457-.00571l.0058-.00571-.0058-.01143c0-.00572-.0057-.01714-.0228-.02286z"/><path d="m19.8744 4.44522-.0057-.01714h-.0057s-.0057-.00572-.0114-.00572h-.0057l-.0172.00572-.0057.01143c0 .01714.0114.02857.0229.02857.0171 0 .0228-.01143.0285-.02286z"/><path d="m19.6059 3.15387.0172-.00572c.0057-.00571.0057-.00571.0057-.01143 0-.01142-.0114-.02285-.0229-.02285h-.0057-.0057s-.0114-.00572-.0172 0c-.0114.00571-.0114.01143-.0114.01714v.00571l.0057.01143v.00572.00571l.0057.01714h.0058c0-.01142.0057-.01142.0228-.02285-.0057.00571-.0057.00571 0 0z"/><path d="m19.6173 5.47413.0114-.01142v-.01715l-.0057-.00571c0-.00572-.0057-.01143-.0057-.01143 0-.00571-.0057-.01143-.0114-.01143h-.0057l-.0115.01143s0 0-.0057 0c-.0228 0-.0228.01143-.0286.02286 0 .01143.0058.01714.0058.02285l.0057.00572.0057.00571.0057.00572h.0171c.0115-.01143.0229-.01715.0229-.01715z"/><path d="m20.5488 3.83398c-.0172 0-.0286.00572-.0286.01143l-.0057.00572v.00571.01143.00571h-.0057c0 .00572.0057.01143.0114.01715 0 .01143.0114.01714.0172.01714h.0057.0057c.0057 0 .0057.00571.0114.00571l.0114.00572h.0229l.0171-.01143v-.00571s0 0 0-.00572c0 0 0-.00571 0-.01143 0-.00571 0-.01143 0-.01714l-.0114-.00571h-.0057c-.0057 0-.0057 0-.0114 0 0-.00572-.0057-.01143-.0115-.01715-.0057 0-.0114-.00571-.0228 0l-.0057-.00571z"/><path d="m20.7143 3.36005.0114-.00571v-.00571c0-.00572 0-.00572 0-.01143 0-.00572 0-.01143 0-.01143v-.00572-.00571c0-.00571 0-.00571-.0057-.01143v-.00571h-.0057l-.0114-.01715c-.0057-.00571-.0114-.01142-.0229-.00571-.0057 0-.0114.00571-.0171.01143v.00571h-.0057v.00572.00571c-.0057.00572-.0114.01143-.0114.01714 0 .00572 0 .01143.0057.01715v.01143h.0171s.0057.00571.0172.00571l.0057.00571z"/><path d="m21.0401 6.18849h.0229l.0057-.00571v-.01715-.00571h-.0057c0-.00571-.0058-.01143-.0115-.01714v-.00572h-.0114v-.00571l-.0286.00571c-.0057 0-.0171.00572-.0171.02286v.00571l.0057.01715h.0057v.00571l.0172.00572h.0057l.0057-.00572z"/><path d="m21.0344 2.94824-.0115.01143v.00571.02858.00571.00571l.0115.01715h.0057c.0229 0 .04-.01143.0514-.03429l.0057-.00571-.0114-.01143v-.00572c-.0057-.00571-.0114-.00571-.0171-.00571-.0115-.01143-.0172-.01143-.0343-.01143z"/><path d="m21.2915 3.53096c-.0057 0-.0114 0-.0171 0l-.0115.00571v.00572c0 .01714.0115.02857.0229.02857l.0057.00572h.0057.0172c.0057.00571.0057.00571.0114.00571h.0057l.0171-.01143v-.00571c0-.01715-.0114-.02858-.0285-.03429 0-.00571-.0115-.01143-.0229-.01143 0 .00572-.0057.00572-.0057.01143z"/><path d="m20.1773 2.91988s0-.00571 0-.01143c0-.00571 0-.01142 0-.01142v-.00572l-.0115-.01143h-.0057c-.0057 0-.0171 0-.0228.00572-.0058 0-.0058.00571-.0058.01714v.00571c-.0057 0-.0114.01143-.0114.02286v.00572l.0057.00571v.01143l.0115.01714h.0057c.0171.00572.0285-.00571.0343-.00571h.0057z"/><path d="m21.6059 3.31436v-.00571l-.0172-.01715h-.0057c-.0171 0-.0286.01143-.0286.02286v.00572.00571.00571.00572l.0115.01143h.0171l.0172-.01143z"/><path d="m21.4115 3.66866c-.0057.00571-.0057.00571-.0057.01142v.00572l.0114.02286h.0057c.0114 0 .0171-.00001.0229-.00572.0057-.00571.0114-.01143.0114-.01714 0-.00572 0-.01714-.0057-.02286l-.0057-.00571-.0229.00571z"/><path d="m20.6 3.07422c-.0057.00571-.0114.01143-.0114.01714v.00572c-.0057.00571-.0115.01142-.0115.01714v.00571l.0115.01143c0 .00572.0057.01714.0171.01714h.0114.0115c.0057-.00571.0114-.01142.0114-.01714v-.00571c.0057-.00572.0114-.01143.0114-.01715 0-.00571 0-.01714-.0171-.02285h-.0057c-.0057 0-.0057 0-.0057 0s-.0057-.00572-.0115-.00572h-.0057z"/><path d="m20.3315 5.89703-.0115.01142c-.0057.00572-.0114.01143-.0114.02286 0 .00572 0 .01143.0057.01714.0057.00572.0057.00572.0114.00572h.0058.0228l.0057-.00572c.0057-.00571.0057-.01142.0057-.01714.0058-.01143.0115-.01714.0115-.02286v-.00571l-.0115-.02286h-.0057c-.0114 0-.0228 0-.0285 0z"/><path d="m19.8001 5.26841c-.0057 0-.0171.00571-.0171.02286v.00571l.0171.01143h.0057.0172.0228.0057l.0115-.01143v-.00571c0-.01715-.0057-.02857-.0286-.02857 0 0 0 0-.0057 0h-.0057z"/><path d="m21.9258 4.46826c0 .00572 0 .00572 0 0-.0057 0-.0057 0-.0114 0h-.0115c-.0057 0-.0057.00572-.0114.00572h-.0057l-.0114.01714v.00571.00572.00571s-.0057.00572-.0057.01143v.00571c0 .00572 0 .01143.0057.01715v.00571.00572l.0057.01142h.0057c.0057 0 .0114.00572.0171 0h.0115.04.0057l.0114-.00571v-.00571-.00572l.0057-.01143v-.00571c0-.00572 0-.00572 0-.01143 0-.01714-.0057-.04571-.0343-.05143z"/><path d="m20.8114 4.1939h-.0057l-.0114.00571c0 .00572-.0057.00572-.0057.01143 0 .00572 0 .01715.0057.02857 0 .00572.0057.02286.0171.02286.0058 0 .0172 0 .0229-.01143l.0057-.00571v-.00572s0 0 .0057-.00571l.0115-.00571-.0058-.01143h.0058v-.00572c.0057-.00571.0057-.00571.0057-.01143v-.01142c-.0057-.00572-.0172-.01143-.0229-.01143-.0171 0-.0228.00571-.0286.01714z"/><path d="m20.583 4.66837c0-.00572 0-.01143 0-.01143l-.0057-.00572h-.0057c-.0114-.00571-.0171-.00571-.0343-.00571-.0114.00571-.0171.01143-.0228.01714h-.0058v.01143c-.0057.00571-.0057.00571-.0057.00571l-.0057.00572.0057.00571v.00572c0 .01714.0115.02285.0172.02285h.0057.0057c.0057.00572.0171.01143.0286.00572h.0057l.0057-.01143c.0057 0 .0114 0 .0114-.00571.0057-.00572.0057-.01143.0057-.01715 0-.00571 0-.00571 0-.01143-.0057-.01142-.0057-.01142-.0057-.01142z"/><path d="m20.1373 3.67457v-.01143l-.0058-.00571c0-.00572-.0114-.01143-.0228-.01143-.0057 0-.0171.00571-.0171.01143v.00571l.0057.00571v.00572l.0114.01714h.0114c.0057 0 .0172-.00571.0172-.01714z"/><path d="m19.6629 3.64551c0-.00571.0057-.01143.0057-.01714 0-.01715-.0057-.02857-.0114-.04l-.0058-.00572c-.0171-.00571-.0457-.01142-.0685.02857-.0058.00572-.0058.01143-.0058.01715v.01143h.0058c0 .00571 0 .00571.0057.01142 0 .00572.0057.00572.0057.00572 0 .00571.0057.00571.0114.01143v.00571h.0057c.0172.00572.0286 0 .0343-.00571.0057 0 .0115-.01143.0172-.02286z"/><path d="m21.7828 3.92002c-.0057 0-.0114 0-.0114 0h-.0057-.0172-.0057c-.0171.01714-.0228.04-.0228.05143v.00571l.0057.00572h-.0057l.0057.01143c.0114.01714.0343.02285.0514.02285.0057 0 .0114-.00571.0172-.00571l.0114-.00572v-.00571h.0057v-.01714s.0057-.00572.0057-.01143c0-.00572 0-.01143-.0057-.01714l-.0057-.01143-.0057-.00572h-.0057s0 0 0-.00571c0 0 0-.00572-.0058-.00572l-.0114-.00571h-.0057c.0171-.00571.0114 0 .0114 0z"/><path d="m21.4687 3.72544c-.0057 0-.0114.00572-.0171.01143l-.0172.00571v.00572c-.0057.00571-.0057.01143-.0057.01714v.01143.00571.00572l.0114.01714c.0058.00571.0058.01143.0172.01143h.0171.0057c.0058 0 .0115-.00572.0172-.01143l.0057-.01143s0 0 0-.00571l.0057-.01143v-.00572c0-.00571.0057-.00571.0057-.01714v-.00571l-.0114-.01143-.0057-.00571h-.0057s0 0-.0057 0c-.0058-.00572-.0058-.00572-.0115-.01143z"/><path d="m20.8116 3.65708h-.0057-.0057l-.0115.01143h-.0057-.0057l-.0114.01143v.00571c0 .01143.0057.02857.0228.03429h.0115.0057l.0057.00571h.0171l.0172-.01143v-.01714l.0057-.00571-.0114-.02286c0-.00571-.0057-.01143-.0172-.01714z"/><path d="m20.04 5.07979c-.0057 0-.0171 0-.0228.01143l-.0057.00571.0171.02286h.0057c.0057 0 .0172 0 .0229-.00572.0057-.00571.0057-.01142.0114-.01714 0 0 0-.00571 0-.01143v-.00571l-.0171-.01143z"/><path d="m19.4286 5.11431c0 .00571-.0057.00571 0 0-.0057.00571-.0057.00571-.0057.01143v.00571l.0114.01715c0 .01142.0057.01714.0171.01714v.00571c.0115.00572.0229.00572.0229 0h.0057l.0114-.01143v-.00571c0-.00571 0-.01143-.0057-.01714v-.01143-.00572c-.0057-.01142-.0171-.01142-.0228-.01714h-.0058l-.0057-.00571z"/><path d="m20.4516 5.02866v-.00571c-.0057-.01143-.0172-.01715-.0286-.01143-.0114 0-.0229.01143-.0229.02286s.0058.01714.0115.02285l.0057.00572.0171-.00572c.0115-.01142.0172-.01714.0172-.02857z"/><path d="m20.0743 4.78857c-.0114 0-.0171 0-.0228 0l-.0057.00572s-.0058.00571-.0058.01714v.00572.00571l.0115.00571v.00572.01143.00571l.0057.00572h.0057c.0171 0 .0229-.00572.0286-.01715l.0057-.00571-.0114-.01714s0-.00572 0-.01143c.0057-.00572-.0001-.01143-.0115-.01715z"/><path d="m20.6516 4.75425c-.0057.00571-.0115.01143-.0115.01714 0 .00572 0 .01143.0058.01715l.0057.00571h.0057c.0057.00571.0057.01714.0114.02857v.00572l.0172.01142h.0057.0057c.0057 0 .0114.00572.0171 0h.0172.0057l.0114-.00571c.0057-.00571.0057-.00571.0057-.01143v-.00571l-.0057-.00572v-.00571-.00572-.00571l-.0057-.00571v-.00572-.00571l-.0114-.01143h-.0057c-.0058 0-.0115 0-.0115 0-.0057 0-.0114-.00572-.0228 0 0-.00572-.0057-.00572-.0115-.01143l-.0057-.00571z"/><path d="m18.8858 4.06846h-.0057c-.0057 0-.0114-.00572-.0171 0-.0057 0-.0114.00571-.0114.01714v.00571l.0057.01143c0 .00572 0 .01143.0057.02286l.0057.00572h.0229l.0057-.00572c.0114-.01143.0114-.01714.0171-.02857 0-.00572 0-.00572 0-.01143h.0114l-.0171-.00571c-.0114-.00572-.0114-.00572-.0229-.01143z"/><path d="m21.1201 5.07427c0 .01143.0057.01714.0114.02286l.0058.00571.0171-.00571c.0057 0 .0114-.00572.0114-.01714v-.00572l-.0114-.01714h-.0057c-.0057 0-.0172 0-.0286.00571.0057 0 0 .00572 0 .01143z"/><path d="m19.3314 1.84567c.0229.00571.0286-.01143.0286-.01715v-.01143l-.0114-.01714h-.0057c-.0114 0-.0286-.00571-.0343.01714 0 .00572 0 .01143.0057.02286l.0057.00572z"/><path d="m20.8687 4.0402.0057-.00572v-.00571-.00571c.0057-.01715-.0057-.02858-.0114-.02858h-.0057l-.0057-.00571h-.0057l-.0172.01143-.0057.02286.0057.01714h.0057z"/><path d="m20.6287 3.91994.0114-.01715s0 0 0-.00571c0-.00572 0-.00572.0057-.00572v-.00571l-.0057-.01714c-.0057-.00572-.0114-.00572-.0229-.00572l-.0114.01143v.00572.00571c-.0057.01143 0 .01714 0 .02286.0057.00571.0057.01143.0172.01143z"/><path d="m19.9658 4.1767v.00572.00571l.0057.01714h.0057c.0115.00572.0286.00572.0343-.01714l.0057-.00571-.0057-.02286h-.0057c-.0114-.00572-.0171-.00572-.0228 0-.0115.00571-.0172.01714-.0172.01714z"/><path d="m20.1658 4.22871-.0057.00572v.00571.01143s0 .00571-.0058.00571c-.0057.01143 0 .02286.0115.02286h.0057l.0114-.00571v-.01143l.0057.00571.0057-.00571c.0115 0 .0172-.01143.0229-.01714v-.00572-.00571c-.0057-.00572-.0114-.01143-.0114-.01143h-.0057l-.0058-.00571c-.0114.00571-.0228 0-.0285.01142z"/><path d="m18.5886 2.67432-.0228.00571v.00572l-.0057.00571.0057.02857.0228.00572.0172-.00572v-.00571-.00572c.0057-.01714-.0057-.02857-.0172-.03428z"/><path d="m18.1315 2.57127-.0057-.01715h-.0057c-.0172-.00571-.0286 0-.0343.00572l-.0057.00571.0057.01715v.00571h.0057c.0229.01143.0343 0 .04-.01714z"/><path d="m18.4629 2.85723v.01143c.0057.01143.0171.01714.0286.01714.0114 0 .0171-.00571.0228-.01714v-.00572l-.0114-.01714h-.0057c-.0057 0-.0115-.00571-.0229 0 0 0-.0057.00572-.0114.01143z"/><path d="m20.1601 3.34854c-.0229-.00571-.0343.00571-.04.01143v.00571l-.0057.00572-.0058.00571v.00572.01142.00572c0 .00571 0 .00571.0058.01143l.0057.01143s0 .00571.0057.00571c.0057.00571.0057.01714.0228.01143.0172.00571.0286-.00572.0343-.01143l.0058-.00571v-.00572c.0057-.00571.0057-.00571.0057-.01143l.0057-.01143v-.00571-.00571s0-.00572 0-.01143v-.00572-.01143h-.0057v-.00571c0-.00571-.0057-.00571-.0115-.01143 0-.00571-.0057-.01143-.0114-.01143h-.0057z"/><path d="m19.3314 3.12011h.0172.0114l.0057-.00572c0-.00571 0-.01714-.0057-.02286-.0114-.01142-.0228-.01714-.0457-.00571l-.0057.00571.0057.01143s.0057.01143.0171.01715z"/><path d="m19.7085 3.18838.0057.01715h.0057l.0057.00571.0058.00572.0228-.00572.0057-.01143c.0057-.01714-.0057-.02857-.0171-.03428-.0114 0-.0229.00571-.0343.02285z"/><path d="m19.7028 4.50278h-.0171c-.0057.00572-.0057.00572-.0057.01143-.0057.01143.0057.02286.0171.02858h.0057.0058s.0114.00571.0171.00571c.0114 0 .0171-.01143.0171-.01143l.0058-.00571-.0058-.01143v-.00572l-.0057-.01714c-.0114 0-.0228 0-.0343.00571 0 0 .0058-.00571 0 0z"/><path d="m20.1829 2.23389-.0114.01143-.0057.01714.0057.00571c0 .00572 0 .01143.0057.01143 0 .00571.0057.01143.0114.01714l.0057.00572.0115-.00572h.0057c.0171 0 .0286-.00571.0286-.01714.0057-.01143 0-.01714-.0058-.02286l-.0057-.00571v-.00571l-.0057-.00572-.0171-.00571c-.0115 0-.0229 0-.0229 0z"/><path d="m19.5029 2.28542c.0172.00571.0286 0 .0286-.00571l.0057-.00572v-.00571-.01143-.00571h.0057c0-.00572-.0057-.01143-.0114-.01715 0-.01143-.0057-.01714-.0114-.01714h-.0057-.0057c0-.00571-.0058-.00571-.0115-.00571l-.0057-.00572-.0228-.00571-.0172.01143v.00571.00571s-.0057.00572-.0057.01143v.01715.00571l.0057.01143c.0057 0 .0057.00571.0114.00571 0 .00572 0 .01143.0058.01714.0057.00572.0114.00572.0228.00572l.0057.00571z"/><path d="m20.7316 2.61133h-.0171v.00571s-.0058.00572-.0058.01143v.01143.00571.00572.01143.00571l.0058.01714c.0057.00572.0114.01143.0228.01143.0057 0 .0114-.00571.0172-.01143l.0057-.00571h.0057l.0057-.00571s0 0 0-.00572c.0057 0 .0114-.00571.0114-.01143 0-.00571 0-.01143-.0057-.01714l.0057-.01143-.0171-.00571s-.0057-.00572-.0172-.00572l-.0057-.00571z"/><path d="m18.2345 3.86289c-.0057 0-.0172-.00571-.0229 0h-.0057l-.0057.01714v.00572l.0057.00571c0 .00572 0 .01143.0057.01714v.00572h.0115v.00571h.0285c.0057 0 .0172-.00571.0229-.01714v-.00571l-.0057-.01715-.0057-.00571v-.00571l-.0115-.00572h-.0057-.0057c0 .00572 0 0-.0057 0z"/><path d="m20.0573 2.6113.0229-.00572.0057-.00571v-.00571c.0057-.00572.0115-.01143.0115-.01715v-.00571-.00572c0-.00571 0-.01714-.0115-.02285l-.0057-.00572h-.0057c-.0114 0-.0172 0-.0286 0h-.0057-.0057l-.0114.01715h.0057l-.0057-.00572s0 .00572-.0058.00572c0-.00572 0-.01715 0-.01715l-.0057-.01714h-.0057c-.0171-.01143-.0343 0-.04.01143l-.0057.00571.0057.00572v.01143c.0057.00571.0114.01142.0172.01142.0057.00572.0114.00572.0171.00572h.0057l.0114-.00572v-.00571.00571c0 .00572 0 .01143.0058.01715v.01714l.0057.00571c.0057.00572.0228.00572.0285.00572z"/><path d="m18.32 3.22305c0-.00571 0-.01143-.0057-.01714l-.0114-.00571h-.0057c-.0172.00571-.0172.02285-.0172.03428v.00572.00571c0 .00571 0 .01143.0057.01714 0 .00572-.0057.01143 0 .01715v.00571l.0172.01143h.0057c.0171-.00571.0229-.02286.0171-.03429 0-.00571.0058-.01143 0-.02285 0-.01143 0-.01143-.0057-.01715z"/><path d="m19.0916 4.61133v.01143.01714.00572l.0114.01714h.0057c.0057.00572.0171.00572.0229 0 .0057 0 .0114-.00571.0114-.01143v-.00571c.0057 0 .0114-.00572.0171-.01714v-.00572l-.0057-.00571.0057-.01143-.0057-.01714h-.0057c-.0171-.00572-.0286 0-.0343 0 0 0 0 0-.0057 0h-.0057z"/><path d="m18.2231 3.05713h.0057l.0115-.02285v-.00572c-.0058-.01714-.0229-.02285-.0286-.01714h-.0057-.0057-.0058-.0057l-.0057.01714.0057.01714.0172.01143z"/><path d="m18.2456 3.38867c-.0057 0-.0114 0-.0114 0h-.0057l-.0115.01714v.00572c.0058.01143.0115.01714.0115.01714.0057.00572.0114.00572.0171 0 .0057 0 .0172-.01143.0172-.01714v-.00572l-.0115-.01714z"/><path d="m19.1144 3.34852c-.0114-.00571-.0172-.00571-.0229 0h-.0057c-.0057 0-.0114-.00571-.0228 0l-.0057.00572-.0058.01143c-.0057.00571-.0114.01143-.0057.02285 0 .00572.0057.00572.0057.01143 0 .00572.0058.00572.0058.01143.0057.00571.0114.00571.0228.00571h.0057v-.00571c.0057.00571.0172.00571.0172 0 .0057 0 .0114-.00571.0114-.02286v-.00571c0-.00571 0-.00571 0-.00571s0-.00572 0-.01143v-.00572z"/><path d="m18.0115 2.94845.0114-.01142c.0057-.00572.0172-.01143.0172-.01715 0-.00571 0-.01143-.0057-.01714 0-.00571-.0058-.00571-.0115-.01143l-.0057-.00571-.0229-.00572-.0057.00572c-.0057.00571-.0057.00571-.0114.01143-.0114.00571-.0114.01714-.0171.02285l-.0058.00572.0058.02285h.0057c.0114.00572.0228.00572.0285.00572z"/><path d="m19.8799 2.1714c.0057 0 .0171-.00571.0229-.02286v-.00571l-.0115-.01714h-.0057c-.0057 0-.0114 0-.0171-.00572-.0057 0-.0115-.00571-.0229-.00571h-.0057l-.0114.01143v.00571c-.0057.01714 0 .02857.0228.03429h.0057l.0058.00571z"/><path d="m19.8801 3.53693.0057.01142c0 .00572 0 .01715.0058.02858h.0057c0 .00571.0057.00571.0114.01142l.0057.00572h.0172l.0057-.00572s.0057-.00571.0057-.01142v-.00572l.0057-.00571c.0057-.00572.0057-.00572.0114-.01143v-.00572-.00571l-.0057-.01143.0057-.00571-.0057-.02286-.0343-.01143-.0114.01143-.0057.00571c-.0057.00572-.0057.00572-.0114.01715-.0115.00571-.0115.00571-.0115.01143z"/><path d="m18.7431 3.23441h.0057l.0114-.00572c0-.00571.0057-.00571.0057-.01143 0-.00571 0-.01714 0-.02857 0-.00571 0-.02286-.0114-.02857-.0057 0-.0171-.00571-.0286.00571l-.0057.00572v.00571s0 0-.0057.00572l-.0057.00571v.01143h-.0057v.00571c-.0057 0-.0057.00572-.0114.01143v.01143c.0057.01143.0114.01714.0228.01143.0172 0 .0229 0 .0286-.00571z"/><path d="m19.0688 2.8172v.01143l.0057.00571s.0057 0 .0057.00572c.0057.00571.0172.01142.0286.01142s.0229-.00571.0229-.01142h.0057v-.01143c.0057 0 .0057-.00572.0057-.00572l.0057-.00571v-.00572-.00571c0-.01714-.0057-.02286-.0114-.02286h-.0057-.0058c-.0057-.00571-.0114-.01143-.0285-.01143h-.0057l-.0058.00572c-.0057 0-.0114 0-.0171.00571-.0057.00572-.0114.01143-.0114.01715.0114.00571.0114.00571.0114.01714z"/><path d="m19.2915 3.87994v.01142l.0057.00572c0 .00571.0057.01714.0172.01714.0057 0 .0171 0 .0228-.01143l.0057-.00571v-.00572-.00571l-.0114-.01714-.0114-.00572c-.0172 0-.0229.01143-.0286.01715z"/><path d="m18 3.54832c.0057 0 .0114-.00572.0171-.00572l.0171-.00571v-.00572c.0058-.00571.0058-.01143.0058-.01714 0-.00572 0-.00572 0-.01143v-.00571-.00572l-.0115-.01714c0-.00572-.0057-.01143-.0114-.01714 0 0-.0057-.00572-.0171-.00572h-.0058c-.0057 0-.0114 0-.0171.00572l-.0057.00571v.00571l-.0057.00572v.00571s-.0057.00572-.0057.01143v.00572l.0057.01142v.00572h.0057v.00571c0 .00572.0057.00572.0114.01143z"/><path d="m17.8801 3.34259c.0114-.00571.0228-.01142.0285-.02857 0-.00571.0057-.01143 0-.02285 0-.00572.0057-.00572.0057-.01143l.0058-.01143-.0058-.01143c0-.00571 0-.01143-.0057-.01143-.0057-.00571-.0114-.01143-.0114-.01143l-.0114-.01143h-.0057-.0058c-.0057 0-.0228-.00571-.0399.01143-.0058 0-.0058.00572-.0058.01143h-.0057v.00572.00571c-.0057.01143 0 .02286.0057.02857v.01143.00571c0 .00572.0058.01143.0115.01715v.00571h.0057v.00572c.0057.00571.0114.01714.0285.01142-.0057.00572 0 0 .0058 0z"/><path d="m18.6286 3.75417h.0057.0057l.0171-.01143h.0115.0057l.0114-.00571v-.00572c.0057-.01142 0-.02857-.0114-.04-.0057 0-.0057-.00571-.0114-.00571 0 0 0 0-.0058 0l-.0057-.01143-.0171-.00571-.0172.01143-.0057.01714-.0057.00571.0057.02286c0 .00571.0057.01143.0115.01714z"/><path d="m19.6858 2.53131c.0058 0 .0172 0 .0286-.00571l.0057-.00572-.0114-.02857h-.0057c-.0057 0-.0114-.00572-.0229 0-.0057 0-.0114.00571-.0114.01143v.00571.00572l.0114.01714z"/><path d="m20.2459 2.74857c.0114-.01143.0228-.02286.0285-.03429s.0057-.02286 0-.03429l-.0057-.00571h-.0228-.0057c-.0058 0-.0229-.00571-.0343.00571l-.0058.00572c0 .00571-.0057.00571-.0057.01143 0 .00571 0 .00571-.0057.01143v.01714.00571l.0114.01143h.0058c.0057 0 .0114.00572.0171.00572h.0057z"/><path d="m20.2916 2.62274c.0057-.00572.0057-.00572.0114-.01143l.0057-.00572-.0057-.01714c0-.01143-.0057-.01714-.0114-.02286v-.00571c-.0058-.01143-.0172-.00572-.0229-.00572h-.0057l-.0114.01143v.00572.01714l-.0058.01143v.00571c.0058.01143.0115.01715.0172.01715h.0057l.0057.00571z"/><path d="m19.0687 2.063-.0057.01715v.00571c0 .00571 0 .00571.0057.01143v.00571l.0171.02286h.0058.0057c.0057 0 .0114.00571.0228 0 .0057 0 .0115-.00571.0172-.01143h.0171v-.00571h.0057l.0172-.01143h.0057l.0057-.01143s.0057-.00571.0114-.01143c.0057 0 .0115-.00571.0172-.01143v-.01143-.00571c0-.00571-.0057-.00571-.0057-.01143l-.0058-.01143h-.0057c-.0057 0-.0114-.00571-.0171-.00571-.0057-.00572-.0057-.00572-.0114-.01143-.0058 0-.0115 0-.0172 0s-.0114.00571-.0114.01143v.01143s0 0-.0057 0h-.0057-.0115-.0057s-.0057 0-.0057.00571c-.0171.00572-.0229.01714-.0229.02286-.0114 0-.0114 0-.0171.00571z"/><path d="m18.4344 2.5196v.02286c0 .00571 0 .01142.0058.01142v.01715l.0057.00571c.0114.00572.0228.00572.0343 0 .0114-.00571.0171-.01714.0228-.02857v-.00571l.0114-.01143v-.00572s0 0 0-.00571c0 0 0 0 0-.00572 0 0 0 0 0-.00571s0-.01143 0-.01714c0-.00572-.0057-.01143-.0057-.01143 0-.00572 0-.01143-.0057-.01714l-.0057-.00572h-.0114l-.0057-.00571-.0058-.00572-.0171.00572h-.0057-.0057-.0057l-.0172.00571v.00572s0 .00571-.0057.00571l-.0057.00571-.0057.00572v.00571l-.0058.00572.0058.02285h.0057c.0171.00572.0228.00572.0228.00572z"/><path d="m19.2686 2.49112v.00571c0 .01143.0114.01715.0228.01715s.0229-.00572.0286-.01715c0-.00571 0-.01714-.0057-.02285l-.0057-.00572h-.0172c-.0114.00572-.0171.01714-.0228.02286z"/><path d="m19.5885 2.81132c.0115.00571.0172.00571.0229.00571l.0114-.00571s.0057-.00572.0057-.01143v-.00572-.00571l-.0057-.00571s0 0 0-.00572c0 0 0-.00571 0-.01143v-.00571l-.0114-.01143h-.0057c-.0172-.00571-.0286 0-.0343.00571l-.0057.00572.0057.01714-.0057.00572c.0114.00571.0114.01714.0228.02857z"/><path d="m19.0173 2.71418c.0057 0 .0114-.00571.0171-.01714 0-.00571 0-.01143-.0057-.02286l-.0057-.00571h-.0057c-.0057-.01143-.0057-.01714-.0057-.02857v-.00571l-.0172-.01715h-.0057s-.0114-.00571-.0171-.00571-.0114 0-.0171 0h-.0058l-.0114.00571c-.0057 0-.0057.00572-.0114.01143l-.0057.00572v.00571.00571.00572.00571l.0057.00572v.00571.00571l.0114.01715h.0057c.0057 0 .0057.00571.0115.00571.0057 0 .0114.00572.0228.00572 0 .00571.0057.01142.0114.01142l.0057.00572z"/><path d="m21.0287 3.37682h.0057c.0057 0 .0115.00572.0172.00572s.0114-.00572.0171-.01715v-.00571l-.0057-.01143c0-.00571.0057-.01143 0-.02286v-.00571l-.0229-.00572-.0057.00572c-.0114.00571-.0171.01714-.0171.02286v.01143h-.0114l.0114.01142c.0057.00572.0114.00572.0114.01143z"/><path d="m19.0114 2.49171-.0057-.02286h-.0057c-.0058 0-.0172-.00572-.0286 0-.0057.00571-.0114.01143-.0114.01714v.00572.00571l.0114.01714h.0057c.0229.00572.0286-.01143.0343-.02285z"/><path d="m18.6286 2.30299c0-.01143 0-.01715-.0057-.02286l-.0058-.00572-.0228.00572c-.0057 0-.0114.00571-.0172.01714v.00572l.0058.01714h.0057c.0057.00571.0171.00571.0285 0 .0058-.00572.0115-.01143.0115-.01714z"/><path d="m18.4802 4.22852-.0114.01142v.00572.02857.00572.00571l.0114.01714h.0057c.0228 0 .04-.01143.0514-.03428l.0057-.00572-.0114-.01143v-.00571c-.0057-.00572-.0114-.00572-.0171-.00572-.0172-.01714-.0229-.01714-.0343-.01142z"/><path d="m19.24 4.57149c-.0057 0-.0114 0-.0171 0l-.0115.00571v.00572c0 .01714.0115.02857.0229.02857l.0057.00571h.0057.0171c.0058.00571.0058.00571.0115.00571h.0057l.0171-.01142v-.00572c0-.01714-.0114-.02857-.0285-.03428 0-.00572-.0115-.01143-.0229-.01143 0 .01143 0 .01143-.0057.01143z"/><path d="m19.0517 4.59415v-.00572l-.0172-.01714h-.0057c-.0171 0-.0286.01143-.0286.02286v.00571.00571.00572.00571l.0115.01143h.0171l.0172-.01143z"/><path d="m19.3602 4.70869c-.0057.00572-.0057.00572-.0057.01143v.00572l.0114.02285h.0057c.0115 0 .0172 0 .0229-.00571s.0114-.01143.0114-.01714c0-.00572 0-.01715-.0057-.02286l-.0057-.00571-.0229.00571z"/><path d="m19.6801 3.90283c-.0057.00572-.0114.01143-.0114.01715v.00571c-.0058.00571-.0115.01143-.0115.01714v.00572l.0115.01143c0 .00571.0057.01714.0171.01714h.0114.0115c.0057-.00572.0114-.01143.0114-.01714v-.00572c.0057-.00571.0114-.01143.0114-.01714 0-.00572 0-.01714-.0171-.02286h-.0057c-.0058 0-.0058 0-.0058 0s-.0057-.00571-.0114-.00571h-.0057z"/><path d="m20.3087 5.05143c0 .00571-.0058.00571-.0058.00571-.0057-.00571-.0114-.00571-.0114-.01143l-.0057-.00571-.0229.00571v.00572.00571c0 .00572 0 .01143.0058.01714l.0057.00572c0 .00571.0057.00571.0114.00571 0 0 .0114 0 .0171-.00571l.0058.00571h.0057c.0228.00572.0285-.00571.0343-.01143v-.00571h.0114.0057l.0057-.00571.0114-.00572v-.01143-.00571-.00571l-.0114-.01715h-.0057s0 0-.0057 0l-.0057-.01714h-.0115c-.0057.01714-.0228.02286-.0342.05143z"/><path d="m21.1259 3.89693c.0228.00572.0285-.01142.0285-.01714v-.01143l-.0114-.01714h-.0057c-.0114 0-.0286-.00571-.0343.01714 0 .00572 0 .01143.0057.02286l.0058.00571z"/><path d="m20.926 6.41697.0228-.00572.0058-.01143c.0057-.00571.0114-.01714.0171-.02857 0-.00571 0-.00571.0057-.01143v-.00571l-.0057-.00571c0-.00572 0-.01143-.0057-.01715-.0057-.01143-.0229-.01143-.0343-.01143-.0171 0-.0286.01143-.0343.01143l-.0057.00572v.01714s-.0057.00571-.0057.01143v.00571.00572c0 .00571.0057.01143.0114.01143.0057.00571.0114.01142.0114.01714l.0058.00571.0114.00572s-.0057.00571 0 0z"/><path d="m20.0972 5.57129-.0229.00571v.00572l-.0057.00571.0057.02857.0229.00572.0171-.00572v-.00571-.00572c.0057-.01714-.0057-.02857-.0171-.03428z"/><path d="m19.6344 5.46824-.0057-.01714h-.0057c-.0171-.00572-.0286 0-.0343.00571l-.0057.00572.0057.01714v.00571h.0057c.0286.01143.0343 0 .04-.01714z"/><path d="m19.9717 5.7542v.01143c.0057.01143.0171.01714.0285.01714.0115 0 .0172-.00571.0229-.01714v-.00571l-.0114-.01715h-.0057c-.0058 0-.0115-.00571-.0229 0-.0057 0-.0057.00572-.0114.01143z"/><path d="m20.84 6.01708h.0171.0115l.0057-.00572c0-.00571 0-.01714-.0057-.02285-.0115-.01143-.0229-.01715-.0457-.00572l-.0058.00572.0058.01142s0 .01143.0171.01715z"/><path d="m21.2173 6.08584.0057.01715h.0057l.0057.00571.0057.00572.0229-.00572.0057-.01143c.0057-.01714-.0057-.02857-.0171-.03428-.0115 0-.0286.00571-.0343.02285z"/><path d="m20.2859 3.55421v-.02857l-.0172-.00571h-.0057v-.00572c0-.01143-.0057-.01714-.0114-.01714h-.0057l-.0172.00571s-.0057.00572-.0114.01143v.00572.01143.00571c.0057.00571.0114.01143.0171.01143h.0057c0 .00571.0058.01143.0115.01714l.0057.00572z"/><path d="m21.6915 5.13135-.0115.01143-.0057.01714.0057.00571c0 .00572 0 .01143.0057.01143 0 .00572.0058.01143.0115.01714l.0057.00572.0114-.00572h.0057c.0172 0 .0286-.00571.0286-.01714.0057-.01143 0-.01714-.0057-.02286l-.0057-.00571v-.00571l-.0057-.00572-.0172-.00571c-.0171 0-.0228 0-.0228 0z"/><path d="m20.4515 4.13096c-.0057 0-.0171-.00572-.0228 0h-.0057l-.0058.01714v.00572l.0058.00571c0 .00571 0 .01143.0057.01714v.00572h.0114v.00571h.0286c.0057 0 .0171-.00571.0228-.01714v-.00572l-.0057-.01714-.0057-.00571v-.00572l-.0114-.00571h-.0058-.0057s0 0-.0057 0z"/><path d="m21.8515 4.66306.0229-.00572.0057-.00571v-.00572c.0057-.00571.0114-.01142.0114-.01714v-.00571-.00572c0-.00571 0-.01714-.0114-.02285l-.0057-.00572h-.0057c-.0115 0-.0172 0-.0286 0h-.0057-.0057l-.0115.01714h.0058l-.0058-.00571s0 .00571-.0057.00571c0-.00571 0-.01714 0-.01714l-.0057-.01714h-.0057c-.0171-.01143-.0343 0-.04.01143l-.0057.00571.0057.00572v.01142c.0057.00572.0114.01143.0171.01143.0058.00572.0115.00572.0172.00572h.0057l.0114-.00572v-.00571.00571c0 .00572 0 .01143.0057.01715v.01714l.0058.00571c.0057 0 .0228.00572.0285.00572z"/><path d="m19.7943 4.08004.0114-.01714-.0057-.01143s-.0057-.00572-.0114-.01143h-.0057l-.0172.00571-.0114.00572v.00571c-.0057.01143.0057.02286.0057.02857v.00572h.0343z"/><path d="m21.0801 4.57101.0114-.01143c.0057-.00571.0172-.01142.0172-.01714 0-.00571 0-.01143-.0057-.01714 0-.00572-.0058-.00572-.0115-.01143l-.0057-.00571-.0228-.00572-.0058.00572c-.0057.00571-.0057.00571-.0114.01142-.0114.00572-.0114.01715-.0171.02286l-.0058.00572.0058.02285h.0057c.0114.00572.0228.00572.0286.00572z"/><path d="m19.2059 3.79436.0115-.01715c.0057 0 .0057 0 .0114-.00571l.0057-.00572v-.02285l-.0057-.00572c-.0057 0-.0114-.01143-.0229-.00571 0 0 0-.00572-.0057-.00572l-.0057-.01142s0 0-.0057 0-.0057 0-.0114 0c-.0058 0-.0058 0-.0115 0l-.0057.01142v.00572h-.0057s-.0057.00571-.0114.01143c0 .00571 0 .01143.0057.01714v.00571.00572l.0114.01143h.0057c.0115.01714.0229.01714.04.01143z"/><path d="m19.5144 4.51998-.0057-.01714-.0057-.00572h-.0058-.0057v-.00571l-.0057-.00572c-.0057-.00571-.0171-.00571-.0229-.00571-.0114 0-.0171.01143-.0171.01714 0 .00572 0 .01715.0057.02286 0 .00571 0 .01714.0057.02286l.0115.00571h.0057c.0114-.00571.0286-.00571.04-.02857z"/><path d="m19.2857 4.47407h.0114c.0057 0 .0057-.00572.0115-.00572h.0114.0057l.0114-.01143v-.00571c0-.00571 0-.01714-.0057-.01714l.0057-.01143v-.00572-.00571-.00571c0-.01143-.0057-.01715-.0171-.02286h-.0057-.0115c-.0057 0-.0228-.01143-.04.00571-.0057 0-.0114.00572-.0171.00572l-.0057.00571v.02286l.0057.00571-.0057.01715.0057.00571c0 .00571.0057.00571.0057.00571l.0057.01143h.0115s.0057 0 .0171.00572z"/><path d="m20.5944 3.66842c.0058 0 .0058-.00572 0 0 .0058-.02286 0-.04-.0114-.04h-.0057l-.0229.01143v.00571.00572c0 .00571 0 .01714.0058.02857l.0057.00571.0228-.00571z"/><path d="m21.6743 4.22267c.0058 0 .0172-.00571.0229-.02286v-.00571l-.0114-.01714h-.0057c-.0058 0-.0115 0-.0172-.00572-.0057 0-.0114-.00571-.0228-.00571h-.0058l-.0114.01143v.00571c-.0057.01714 0 .02857.0229.03429h.0057l.0057.00571z"/><path d="m20.2458 6.13138s.0057 0 0 0h.0057l.0114-.00572c0-.00571.0057-.00571.0057-.01143 0-.00571 0-.01714 0-.02857 0-.00571 0-.02285-.0114-.02857-.0057 0-.0172-.00571-.0286.00572l-.0057.00571v.00572s0 0-.0057.00571l-.0057.00571v.01143h-.0057v.00572c-.0057 0-.0058.00571-.0115.01142v.01143c.0057.01143.0115.01715.0229.01143.0171.00572.0228 0 .0286-.00571z"/><path d="m20.5715 5.71417v.01143l.0057.00571s.0057 0 .0057.00572c.0057.00571.0172.01143.0286.01143s.0229-.00572.0229-.01143h.0057v-.01143c.0057 0 .0057-.00571.0057-.00571l.0057-.00572v-.00571-.00572c0-.01714-.0057-.02285-.0114-.02285h-.0057-.0058c-.0057-.00572-.0114-.01143-.0285-.01143h-.0058l-.0057.00571c-.0057 0-.0114 0-.0171.00572-.0057.00571-.0114.01142-.0114.01714.0171.00571.0171.01143.0114.01714.0057 0 .0057 0 0 0z"/><path d="m21.1944 5.42828c.0057 0 .0171 0 .0286-.00571l.0057-.00572-.0115-.02857h-.0057c-.0057 0-.0114-.00571-.0228 0-.0057 0-.0115.00572-.0115.01143v.00571.00572l.0115.01714z"/><path d="m21.7488 5.64554c.0114-.01143.0228-.02286.0286-.03429.0057-.01143.0057-.02285 0-.03428l-.0058-.00572h-.0228-.0057c-.0057 0-.0229-.00571-.0343.00572l-.0057.00571c0 .00572-.0057.00572-.0057.01143s0 .00571-.0057.01143v.01714.00572l.0114.01142h.0057c.0057 0 .0114.00572.0171.00572h.0057z"/><path d="m21.8001 5.51971c.0057-.00572.0057-.00572.0114-.01143l.0057-.00572-.0057-.01714c0-.01143-.0057-.01714-.0114-.02286v-.00571c-.0057-.01143-.0171-.00571-.0228-.00571h-.0058l-.0114.01142v.00572.01714l-.0057.01143v.00571c.0057.01143.0114.01715.0171.01715h.0058l.0057.00571z"/><path d="m20.5772 4.95997-.0057.01715v.00571c0 .00572 0 .00572.0057.01143v.00571l.0172.02286h.0057.0057c.0057 0 .0114.00572.0229 0 .0057 0 .0114-.00571.0171-.01143h.0172v-.00571h.0057l.0171-.01143h.0057l.0057-.01143s.0058-.00571.0115-.01143c.0057 0 .0114-.00571.0171-.01143v-.01142-.00572c0-.00571-.0057-.00571-.0057-.01143l-.0057-.01143h-.0057c-.0057 0-.0115-.00571-.0172-.00571-.0057-.00571-.0057-.00571-.0114-.01143-.0057 0-.0114 0-.0171 0-.0058 0-.0115.00572-.0115.01143v.01143s0 0-.0057 0h-.0057-.0114-.0057s-.0058 0-.0058.00571c-.0171.00572-.0228.01715-.0228.02286-.0114 0-.0172.00571-.0172.00571z"/><path d="m19.9715 4.84577v.02286c0 .00571 0 .01142.0058.01142v.01715l.0057.00571c.0114.00572.0228.00572.0342 0 .0115-.00571.0172-.01714.0229-.02857v-.00571l.0114-.01143v-.00572s0 0 0-.00571c0 0 0 0 0-.00571 0 0 0 0 0-.00572 0-.00571 0-.01143 0-.01714 0-.00572-.0057-.01143-.0057-.01143 0-.00571 0-.01143-.0057-.01714l-.0057-.00572h-.0114l-.0058-.00571-.0057-.00572-.0171.00572h-.0057-.0057-.0057l-.0172.00571v.00572s0 .00571-.0057.00571l-.0057.00572-.0057.00571v.00571l-.0057.00572.0057.02286h.0057c.0228.00571.0228.00571.0228.00571z"/><path d="m19.0515 4.58262c0-.00571 0-.01142 0-.01714v-.00571l-.0171-.01143h-.0057c-.0057 0-.0286 0-.0343.02286v.00571l.0057.01714h.0057c.0114.00572.0229.01143.0343.00572 0 0 .0057-.00572.0114-.01715z"/><path d="m20.7773 5.38858v.00571c0 .01143.0115.01715.0229.01715s.0229-.00572.0286-.01715c0-.00571 0-.01714-.0057-.02285l-.0058-.00572h-.0171c-.0114.00572-.0171.01715-.0229.02286z"/><path d="m21.0973 5.70878c.0115.00571.0172.00571.0229.00571l.0114-.00571s.0057-.00572.0057-.01143v-.00571-.00572l-.0057-.00571s0 0 0-.00572c0 0 0-.00571 0-.01143v-.00571l-.0114-.01143h-.0057c-.0172-.00571-.0286 0-.0343.00572l-.0057.00571.0057.01714-.0057.00572c.0057.00571.0114.01714.0228.02857z"/><path d="m20.5259 5.61702c.0057 0 .0114-.00572.0171-.01715 0-.00571 0-.01142-.0057-.02285l-.0057-.00572h-.0057c-.0058-.01143-.0058-.01714-.0058-.02857v-.00571l-.0171-.01715h-.0057s-.0114-.00571-.0172-.00571c-.0057 0-.0114 0-.0171 0h-.0057l-.0114.00571c-.0058 0-.0058.00572-.0115.01143l-.0057.00572v.00571.00572.00571.00571l.0057.00572v.00571.00572l.0115.01714h.0057c.0057 0 .0057.00571.0114.00571s.0114.00572.0229.00572c0 .00571.0057.01143.0114.01143l.0057.00571z"/><path d="m20.5202 5.39405-.0057-.02286h-.0057c-.0058 0-.0172-.00571-.0286 0-.0057.00572-.0114.01143-.0114.01714v.00572.00571l.0114.01714h.0057c.0229 0 .0286-.01714.0343-.02285z"/><path d="m20.1371 5.19996c0-.01143 0-.01714-.0057-.02286l-.0057-.00571-.0229.00571c-.0057 0-.0114.00572-.0171.01714v.00572l.0057.01714h.0057c.0057.00571.0172.00571.0286 0 .0057 0 .0114-.00571.0114-.01714z"/></g><path d="m3.60579 21.6802-1.52571.5943z" fill="url(#I)"/><path d="m2.16012 20.8174-.43429 1.1028c.18857.2343.36.0057.57714-.4514.10286-.2228.04572-.4914-.14285-.6514z" fill="url(#J)"/></svg>